<svg width="20" height="21" viewBox="0 0 20 21" fill="none" xmlns="http://www.w3.org/2000/svg">
<path fill-rule="evenodd" clip-rule="evenodd" d="M10.8837 13.8823C10.6494 14.1164 10.3317 14.2479 10.0004 14.2479C9.66915 14.2479 9.35144 14.1164 9.11707 13.8823L4.40207 9.16901C4.16768 8.93452 4.03605 8.61652 4.03613 8.28497C4.0362 7.95342 4.16799 7.63548 4.40248 7.4011C4.63698 7.16671 4.95498 7.03508 5.28653 7.03516C5.61808 7.03523 5.93601 7.16702 6.1704 7.40151L10.0004 11.2315L13.8304 7.40151C14.066 7.1737 14.3817 7.04756 14.7095 7.05025C15.0372 7.05294 15.3508 7.18426 15.5827 7.41591C15.8146 7.64756 15.9462 7.96101 15.9492 8.28876C15.9522 8.61651 15.8263 8.93232 15.5987 9.16818L10.8846 13.8832L10.8837 13.8823Z" fill="#6D6D6D"/>
</svg>
