<svg width="40" height="40" viewBox="0 0 40 40" stroke-width="0" stroke="currentColor" fill="currentColor" xmlns="http://www.w3.org/2000/svg">
<path d="M13.06 8C12.076 8 11.242 8.738 11.14 9.725C10.992 11.133 10.75 13.682 10.75 15.25C10.75 16.73 11.428 18.052 12.487 18.922C12.835 19.208 13 19.522 13 19.786V20.448L12.999 20.495C12.958 21.094 12.5 27.782 12.5 29C12.5 29.394 12.5776 29.7841 12.7284 30.1481C12.8791 30.512 13.1001 30.8427 13.3787 31.1213C13.6573 31.3999 13.988 31.6209 14.3519 31.7716C14.7159 31.9224 15.106 32 15.5 32C15.894 32 16.2841 31.9224 16.6481 31.7716C17.012 31.6209 17.3427 31.3999 17.6213 31.1213C17.8999 30.8427 18.1209 30.512 18.2716 30.1481C18.4224 29.7841 18.5 29.394 18.5 29C18.5 27.782 18.043 21.094 18.001 20.495L18 20.448V19.786C18 19.521 18.165 19.208 18.513 18.922C19.0566 18.4769 19.4944 17.9166 19.7948 17.2815C20.0952 16.6464 20.2507 15.9525 20.25 15.25C20.25 13.682 20.008 11.133 19.86 9.725C19.81 9.25091 19.5861 8.81216 19.2315 8.49356C18.8769 8.17496 18.4167 7.99911 17.94 8C17.483 8 17.062 8.158 16.73 8.423C16.3786 8.1489 15.9457 8.00002 15.5 8C15.0543 8.00002 14.6214 8.1489 14.27 8.423C13.9266 8.14827 13.4997 7.99904 13.06 8ZM15 10C15 9.8674 15.0527 9.74022 15.1464 9.64645C15.2402 9.55268 15.3674 9.5 15.5 9.5C15.6326 9.5 15.7598 9.55268 15.8536 9.64645C15.9473 9.74022 16 9.8674 16 10V15.25C16 15.4489 16.079 15.6397 16.2197 15.7803C16.3603 15.921 16.5511 16 16.75 16C16.9489 16 17.1397 15.921 17.2803 15.7803C17.421 15.6397 17.5 15.4489 17.5 15.25V9.94C17.5 9.82331 17.5464 9.71139 17.6289 9.62888C17.7114 9.54636 17.8233 9.5 17.94 9.5C18.165 9.5 18.347 9.667 18.369 9.881C18.517 11.301 18.75 13.773 18.75 15.25C18.7507 15.7309 18.6444 16.2059 18.4387 16.6405C18.2331 17.0752 17.9332 17.4586 17.561 17.763C17.023 18.205 16.5 18.903 16.5 19.786V20.448C16.5 20.498 16.501 20.544 16.505 20.598C16.549 21.243 17 27.849 17 29C17 29.3978 16.842 29.7794 16.5607 30.0607C16.2794 30.342 15.8978 30.5 15.5 30.5C15.1022 30.5 14.7206 30.342 14.4393 30.0607C14.158 29.7794 14 29.3978 14 29C14 27.85 14.45 21.243 14.495 20.598C14.499 20.544 14.5 20.498 14.5 20.448V19.786C14.5 18.902 13.977 18.205 13.439 17.763C13.0668 17.4586 12.7669 17.0752 12.5613 16.6405C12.3556 16.2059 12.2493 15.7309 12.25 15.25C12.25 13.773 12.483 11.302 12.631 9.881C12.6424 9.77556 12.6927 9.67814 12.772 9.60771C12.8513 9.53729 12.9539 9.49889 13.06 9.5C13.1767 9.5 13.2886 9.54636 13.3711 9.62888C13.4536 9.71139 13.5 9.82331 13.5 9.94V15.25C13.5 15.4489 13.579 15.6397 13.7197 15.7803C13.8603 15.921 14.0511 16 14.25 16C14.4489 16 14.6397 15.921 14.7803 15.7803C14.921 15.6397 15 15.4489 15 15.25V10ZM28.5 9.506V19.25C28.5 19.6 28.594 21.247 28.698 23.06L28.704 23.165C28.844 25.601 29 28.33 29 29C29 29.3978 28.842 29.7794 28.5607 30.0607C28.2794 30.342 27.8978 30.5 27.5 30.5C27.1022 30.5 26.7206 30.342 26.4393 30.0607C26.158 29.7794 26 29.3978 26 29C26 28.405 26.123 25.997 26.249 23.7C26.3228 22.3539 26.3988 21.0079 26.477 19.662L26.499 19.294L26.5 19.25C26.5 19.0511 26.421 18.8603 26.2803 18.7197C26.1397 18.579 25.9489 18.5 25.75 18.5H23.75C23.6837 18.5 23.6201 18.4737 23.5732 18.4268C23.5263 18.3799 23.5 18.3163 23.5 18.25V14.75C23.5 13.4009 24.0194 12.1036 24.9503 11.1272C25.8813 10.1508 27.1524 9.57025 28.5 9.506ZM24.955 20L24.923 20.556C24.876 21.373 24.813 22.476 24.751 23.618C24.627 25.885 24.5 28.352 24.5 29C24.5 29.394 24.5776 29.7841 24.7284 30.1481C24.8791 30.512 25.1001 30.8427 25.3787 31.1213C25.6573 31.3999 25.988 31.6209 26.3519 31.7716C26.7159 31.9224 27.106 32 27.5 32C27.894 32 28.2841 31.9224 28.6481 31.7716C29.012 31.6209 29.3427 31.3999 29.6213 31.1213C29.8999 30.8427 30.1209 30.512 30.2716 30.1481C30.4224 29.7841 30.5 29.394 30.5 29C30.5 28.279 30.342 25.526 30.206 23.145L30.202 23.079C30.093 21.18 30 19.55 30 19.25V8.75C30 8.55109 29.921 8.36033 29.7803 8.21967C29.6397 8.07902 29.4489 8 29.25 8H28.75C26.9598 8 25.2429 8.71116 23.977 9.97703C22.7112 11.2429 22 12.9598 22 14.75V18.25C22 19.216 22.784 20 23.75 20H24.955Z" />
</svg>
